
The Matrix (1999)  Telugu.avi
      Format : AVI
      Format/Info : Audio Video Interleave
      File size : 711 MiB
      Duration : 2h 4mn
      Overall bit rate : 800 Kbps
      
   Video #0
      ID : 0
      Format : MPEG-4 Visual
      Format profile : AdvancedSimple@L5
      Format settings, BVOP : Yes
      Format settings, QPel : No
      Format settings, GMC : No warppoints
      Format settings, Matrix : Default (H.263)
      Muxing mode : Packed bitstream
      Codec ID : XVID
      Codec ID/Hint : XviD
      Duration : 2h 4mn
      Bit rate : 700 Kbps
      Width : 720 pixels
      Height : 304 pixels
      Display aspect ratio : 2.35:1
      Frame rate : 23.976 fps
      Resolution : 24 bits
      Colorimetry : 4:2:0
      Scan type : Progressive
      Bits/(Pixel*Frame) : 0.133
      Stream size : 622 MiB (87%)
      Writing library : XviD 1.2.1 (UTC 2008-12-04)
   Audio #1
      ID : 1
      Format : MPEG Audio
      Format version : Version 1
      Format profile : Layer 3
      Codec ID : 55
      Codec ID/Hint : MP3
      Duration : 2h 4mn
      Bit rate mode : Constant
      Bit rate : 96.0 Kbps
      Channel(s) : 2 channels
      Sampling rate : 32.0 KHz
      Resolution : 16 bits
      Stream size : 85.3 MiB (12%)
      Alignment : Split accross interleaves
      Interleave, duration : 21806 ms (522.81 video frames)
      Writing library : LAME3.98r
      Encoding settings : -m j -V 4 -q 2 -lowpass 15.1 -b 96